<?xml version="1.0" encoding="UTF-8"?>
<svg xmlns="http://www.w3.org/2000/svg" xmlns:xlink="http://www.w3.org/1999/xlink" width="1920" height="1080" viewBox="0 0 1920 1080">
<defs>
<g>
<g id="glyph-0-0">
<path d="M 0.296875 0 L 0.296875 -0.328125 L 0.390625 -0.328125 C 0.566406 -0.328125 0.71875 -0.351562 0.84375 -0.40625 C 0.96875 -0.46875 1.03125 -0.613281 1.03125 -0.84375 L 1.03125 -4.703125 C 1.03125 -4.929688 0.96875 -5.078125 0.84375 -5.140625 C 0.71875 -5.203125 0.566406 -5.234375 0.390625 -5.234375 L 0.296875 -5.234375 L 0.296875 -5.5625 L 2.390625 -5.5625 C 3.722656 -5.5625 4.390625 -5.054688 4.390625 -4.046875 C 4.390625 -3.773438 4.332031 -3.546875 4.21875 -3.359375 C 4.101562 -3.171875 3.957031 -3.019531 3.78125 -2.90625 C 3.613281 -2.789062 3.4375 -2.703125 3.25 -2.640625 L 4.3125 -0.953125 C 4.445312 -0.742188 4.578125 -0.585938 4.703125 -0.484375 C 4.828125 -0.378906 4.96875 -0.328125 5.125 -0.328125 L 5.15625 -0.328125 L 5.15625 0 L 5.046875 0 C 4.722656 0 4.46875 -0.015625 4.28125 -0.046875 C 4.101562 -0.078125 3.960938 -0.144531 3.859375 -0.25 C 3.753906 -0.351562 3.640625 -0.503906 3.515625 -0.703125 L 2.46875 -2.453125 L 1.828125 -2.453125 L 1.828125 -0.84375 C 1.828125 -0.613281 1.890625 -0.46875 2.015625 -0.40625 C 2.140625 -0.351562 2.285156 -0.328125 2.453125 -0.328125 L 2.5625 -0.328125 L 2.5625 0 Z M 2.359375 -2.8125 C 2.816406 -2.8125 3.128906 -2.910156 3.296875 -3.109375 C 3.472656 -3.316406 3.5625 -3.625 3.5625 -4.03125 C 3.5625 -4.445312 3.46875 -4.742188 3.28125 -4.921875 C 3.101562 -5.097656 2.789062 -5.1875 2.34375 -5.1875 L 1.828125 -5.1875 L 1.828125 -2.8125 Z "/>
</g>
<g id="glyph-0-1">
<path d="M 2.234375 0.078125 C 1.671875 0.078125 1.226562 -0.0976562 0.90625 -0.453125 C 0.582031 -0.816406 0.421875 -1.363281 0.421875 -2.09375 C 0.421875 -2.820312 0.578125 -3.363281 0.890625 -3.71875 C 1.203125 -4.070312 1.65625 -4.25 2.25 -4.25 C 2.8125 -4.25 3.253906 -4.070312 3.578125 -3.71875 C 3.898438 -3.363281 4.0625 -2.820312 4.0625 -2.09375 C 4.0625 -1.363281 3.90625 -0.816406 3.59375 -0.453125 C 3.289062 -0.0976562 2.835938 0.078125 2.234375 0.078125 Z M 2.25 -0.328125 C 2.632812 -0.328125 2.90625 -0.472656 3.0625 -0.765625 C 3.226562 -1.066406 3.3125 -1.507812 3.3125 -2.09375 C 3.3125 -2.675781 3.226562 -3.113281 3.0625 -3.40625 C 2.90625 -3.695312 2.628906 -3.84375 2.234375 -3.84375 C 1.847656 -3.84375 1.578125 -3.695312 1.421875 -3.40625 C 1.265625 -3.113281 1.1875 -2.675781 1.1875 -2.09375 C 1.1875 -1.507812 1.265625 -1.066406 1.421875 -0.765625 C 1.585938 -0.472656 1.863281 -0.328125 2.25 -0.328125 Z "/>
</g>
<g id="glyph-0-2">
<path d="M 1.875 0.078125 C 1.476562 0.078125 1.1875 -0.0078125 1 -0.1875 C 0.820312 -0.363281 0.734375 -0.675781 0.734375 -1.125 L 0.734375 -3.734375 L 0.140625 -3.734375 L 0.140625 -4.03125 C 0.234375 -4.03125 0.335938 -4.050781 0.453125 -4.09375 C 0.566406 -4.132812 0.664062 -4.195312 0.75 -4.28125 C 0.84375 -4.375 0.914062 -4.488281 0.96875 -4.625 C 1.03125 -4.757812 1.078125 -4.925781 1.109375 -5.125 L 1.46875 -5.125 L 1.46875 -4.171875 L 2.484375 -4.171875 L 2.484375 -3.734375 L 1.46875 -3.734375 L 1.46875 -1.109375 C 1.46875 -0.835938 1.519531 -0.640625 1.625 -0.515625 C 1.738281 -0.390625 1.882812 -0.328125 2.0625 -0.328125 C 2.15625 -0.328125 2.238281 -0.332031 2.3125 -0.34375 C 2.394531 -0.351562 2.476562 -0.367188 2.5625 -0.390625 L 2.5625 -0.046875 C 2.488281 -0.015625 2.382812 0.0078125 2.25 0.03125 C 2.113281 0.0625 1.988281 0.078125 1.875 0.078125 Z "/>
</g>
<g id="glyph-0-3">
</g>
<g id="glyph-0-4">
<path d="M 0 0 L 0 -0.328125 L 0.140625 -0.328125 C 0.296875 -0.328125 0.410156 -0.363281 0.484375 -0.4375 C 0.554688 -0.519531 0.640625 -0.6875 0.734375 -0.9375 L 2.46875 -5.5625 L 3.078125 -5.5625 L 4.828125 -0.734375 C 4.890625 -0.578125 4.957031 -0.46875 5.03125 -0.40625 C 5.113281 -0.351562 5.234375 -0.328125 5.390625 -0.328125 L 5.484375 -0.328125 L 5.484375 0 L 3.34375 0 L 3.34375 -0.328125 L 3.53125 -0.328125 C 3.832031 -0.328125 3.984375 -0.453125 3.984375 -0.703125 C 3.984375 -0.742188 3.976562 -0.785156 3.96875 -0.828125 C 3.957031 -0.878906 3.941406 -0.929688 3.921875 -0.984375 L 3.625 -1.859375 L 1.578125 -1.859375 L 1.28125 -1.046875 C 1.226562 -0.921875 1.203125 -0.804688 1.203125 -0.703125 C 1.203125 -0.453125 1.375 -0.328125 1.71875 -0.328125 L 1.90625 -0.328125 L 1.90625 0 Z M 1.71875 -2.25 L 3.484375 -2.25 L 3 -3.609375 C 2.914062 -3.835938 2.835938 -4.050781 2.765625 -4.25 C 2.703125 -4.457031 2.648438 -4.65625 2.609375 -4.84375 C 2.566406 -4.65625 2.515625 -4.472656 2.453125 -4.296875 C 2.398438 -4.128906 2.332031 -3.925781 2.25 -3.6875 Z "/>
</g>
</g>
</defs>
<g fill="rgb(100%, 100%, 100%)" fill-opacity="1">
<use xlink:href="#glyph-0-0" x="30" y="28.314453"/>
<use xlink:href="#glyph-0-1" x="35" y="28.314453"/>
<use xlink:href="#glyph-0-1" x="39" y="28.314453"/>
<use xlink:href="#glyph-0-2" x="43" y="28.314453"/>
<use xlink:href="#glyph-0-3" x="46" y="28.314453"/>
<use xlink:href="#glyph-0-4" x="48" y="28.314453"/>
</g>
</svg>
